<svg width="128" height="100" viewBox="0 0 128 100" fill="none" xmlns="http://www.w3.org/2000/svg">
<path d="M49.6979 89.0297C53.9854 89.2309 58.273 89.432 62.5605 89.5829C71.0855 89.9097 79.6356 90.3372 88.1856 90.5132C96.1339 90.664 104.107 90.84 112.056 90.1612C115.867 89.8343 119.678 89.4572 123.414 88.5772C124.868 88.2252 126.272 87.7978 128.027 87.2949C127.175 88.1749 126.548 88.8538 125.896 89.5326C125.52 89.9349 125.144 90.3372 124.642 90.5634C121.007 93.3543 116.945 95.2651 112.582 96.5976C106.364 98.4833 99.9451 99.0616 93.5012 99.4639C86.4305 99.8913 79.3848 99.5393 72.3643 99.0616C61.9588 98.3325 51.6034 97.2765 41.223 96.2708C34.3278 95.6171 27.4326 94.9634 20.5374 94.5359C13.9431 94.1337 7.37387 93.7565 0.779547 93.656C0.629107 93.656 0.453593 93.6057 0.0273438 93.5554C2.10844 92.6251 4.08924 92.2228 6.0199 91.7451C10.7337 90.6137 15.5227 90.0354 20.3368 89.6835C25.9032 89.256 31.4945 88.9543 37.111 89.0549C39.7437 89.1052 42.3764 89.0046 45.0091 88.9795C46.5386 88.5018 48.1182 88.4515 49.6979 89.0297Z" fill="#6CBE45"/>
<path d="M48.8926 27.2791C48.5917 25.3432 49.4192 23.6838 51.1994 22.9043C52.6035 22.2758 54.0828 22.1249 55.6123 22.3512C55.9383 22.4015 56.3394 22.3764 56.3896 22.9546C56.6403 25.7203 53.8572 28.7625 51.1242 28.6368C50.1714 28.486 49.5947 27.7568 48.8926 27.2791Z" fill="#6DBB45"/>
<path d="M55.8633 35.2993C57.3427 35.5004 58.4459 36.6319 58.7468 38.1907C58.8471 38.6432 59.0477 39.121 58.5964 39.4981C57.5934 39.7244 57.5934 39.7244 56.4651 39.3724C56.9917 39.6489 57.5182 39.7495 57.7689 40.2775C57.8191 40.4032 57.794 40.5289 57.7188 40.6546C55.9636 41.5598 54.3088 41.2329 52.7542 40.2021C52.3781 39.9507 51.977 39.7244 51.7012 39.3724C51.2248 38.6935 50.6982 38.065 50.3723 37.2856C49.9962 36.305 50.1466 35.953 51.1495 35.6262C52.679 35.073 54.2586 34.897 55.8633 35.2993Z" fill="#6CBC45"/>
<path d="M44.0794 37.865C43.8537 37.7393 43.6531 37.5884 43.4275 37.4627C42.4747 36.457 41.2711 35.7028 40.7195 34.2696C40.218 32.9622 40.3183 31.7554 40.9201 30.5486C41.1959 29.9703 41.6723 29.9451 42.1738 30.1714C42.5499 30.3474 42.8508 30.624 43.1266 31.0263C43.0012 30.3977 42.5499 29.6434 43.7283 29.6686C46.9879 31.0263 46.9628 35.1999 45.9097 37.5382C45.4584 38.6444 44.7564 38.0159 44.0794 37.865Z" fill="#6DBD45"/>
<path d="M62.8843 34.8212C62.7589 34.7961 62.6085 34.7961 62.5333 34.7206C61.9566 34.2429 61.405 33.6144 60.8784 34.7709C60.8534 34.8463 60.6528 34.8212 60.5274 34.8463C60.2015 34.7709 59.9256 34.6703 59.7251 34.3686C57.7443 32.307 57.4434 29.9436 58.5215 27.3288C58.8726 26.4739 59.374 26.2728 60.1513 26.7756C61.2545 27.4545 62.3076 28.2339 63.0598 29.2899C64.138 30.8487 64.0377 32.483 63.2103 34.1424C63.2604 34.4692 63.11 34.6703 62.8843 34.8212Z" fill="#6CBC45"/>
<path d="M68.3778 29.2664C72.0134 30.8755 72.9913 34.3452 70.9102 36.8091C70.6093 37.0354 70.3084 36.9851 70.0326 36.7337C69.7067 36.432 69.3306 36.432 68.9294 36.5326C67.0739 36.0549 65.8453 33.792 66.3217 31.5292C66.422 31.0012 66.4973 30.4481 66.7229 29.9704C67.0739 29.2664 67.5253 28.839 68.3778 29.2664Z" fill="#6BBA46"/>
<path d="M63.2603 21.7227C63.3857 21.5468 63.511 21.3959 63.6615 21.2199C64.7898 20.0885 65.9432 19.0828 67.6231 18.8062C68.6009 18.6554 69.4284 18.9571 70.3059 19.1834C70.4062 19.3091 70.5567 19.4096 70.682 19.5102C71.7351 20.4153 71.7101 20.5411 70.5065 21.5468C70.7071 21.8233 71.2838 21.8987 71.1835 22.3765C71.1083 22.7787 70.8576 23.0302 70.5567 23.2816C68.7012 24.941 65.1157 24.765 63.3355 22.9799C62.834 22.5524 62.8842 22.1502 63.2603 21.7227Z" fill="#6CBD45"/>
<path d="M45.7614 24.2877C45.1597 24.162 44.2821 24.6397 44.1567 23.4832C44.1316 23.2317 43.8558 23.2569 43.7054 23.458C43.2791 24.0112 43.0033 23.458 42.7025 23.3072C42.201 21.8489 42.4517 20.5415 43.6051 19.4604C44.8086 18.6558 46.0372 17.9267 47.5416 17.801C48.9207 17.6753 49.1965 17.8513 49.021 19.2592C48.9708 19.5861 48.9708 19.9129 48.9708 20.2649C48.8705 20.7426 48.7953 21.2203 48.695 21.6981C47.8676 22.754 46.9649 23.7094 45.7363 24.2877H45.7614Z" fill="#6CBB45"/>
<path d="M70.8824 1.10621C71.6847 1.40792 72.7629 1.78506 72.788 2.56447C72.813 3.19303 71.6847 3.51988 70.9827 3.87188C69.2275 4.72672 67.4473 5.20442 65.4916 4.67643C65.2158 4.32444 64.7645 4.32444 64.4134 4.1233C63.3603 3.51988 63.26 3.24332 64.0373 2.2879C64.3131 1.96105 64.1376 1.93591 63.937 1.78506C63.6863 1.60906 63.4606 1.40792 63.7615 1.10621C66.1184 -0.0251988 68.5004 0.150798 70.8824 1.10621Z" fill="#6DBA45"/>
<path d="M71.8106 46.6656C71.2089 48.2747 69.7045 49.1547 67.7237 49.029C67.5983 49.029 67.4729 49.0038 67.3476 48.9787C64.9906 48.7273 64.8151 48.3753 66.0437 46.2382C66.9715 44.6039 68.2753 43.6736 70.231 43.8748C71.9109 44.7548 71.9862 44.8805 71.8106 46.6656Z" fill="#6DB647"/>
<path d="M90.0895 24.0872C89.8889 23.1821 89.2872 23.1318 88.56 23.3329C86.8049 21.5478 87.3064 18.9833 88.8359 17.2736C89.4125 16.7205 90.0645 16.7708 90.7164 17.1479C91.8447 18.6062 92.5969 20.1147 91.97 22.0507C91.619 23.0815 90.7665 23.4586 90.0895 24.0872Z" fill="#6DBA46"/>
<path d="M75.3962 13.4017C73.3652 15.4131 70.9833 15.4131 68.4759 14.5834C68.1249 14.4577 67.9243 14.332 68.0998 13.8543C69.178 11.164 73.2399 9.85661 75.7974 11.4154C76.2738 12.22 75.2959 12.6977 75.3962 13.4017Z" fill="#6CBC45"/>
<path d="M90.4132 32.0818C88.0814 33.1377 86.3513 32.4337 84.872 29.7686C84.3204 27.3298 84.546 26.9778 87.0784 27.1538C88.7333 27.2544 90.0622 28.059 90.8394 29.5927C91.1153 30.4978 90.8394 31.3023 90.4132 32.0818Z" fill="#6DBA45"/>
<path d="M107.892 27.0273C106.613 27.7313 105.334 27.681 104.181 26.801C102.877 25.7953 102.325 24.3873 102.175 22.7782C102.15 22.5519 102.275 22.4011 102.476 22.2754C103.98 21.4457 107.014 22.4765 107.917 24.1359C108.017 25.0913 108.443 26.0719 107.892 27.0273Z" fill="#6CB846"/>
<path d="M83.7967 5.75772C81.9413 6.86399 80.1109 6.36114 78.3558 5.55658C77.6036 5.20459 76.3499 4.87774 76.4251 4.04804C76.4753 3.26862 77.7039 3.0172 78.5313 2.76578C80.3366 2.21264 82.1168 2.16236 83.7967 3.1932C84.0475 3.46976 84.0725 3.77147 83.8719 4.09832C83.8469 4.14861 83.5961 4.17375 83.7716 4.24918C85.1005 4.72688 84.0976 5.25487 83.7967 5.75772Z" fill="#6CB946"/>
<path d="M83.7421 57.451C81.9618 56.6213 81.2848 55.1127 81.8866 53.2773C81.9869 52.9505 82.1123 52.6488 82.2627 52.3722C82.689 51.6179 83.0901 50.4865 83.8925 50.4614C84.7701 50.4362 85.2716 51.5425 85.6978 52.347C86.6255 54.0567 86.3748 55.6658 85.071 57.0235C84.5193 56.8224 84.394 57.9287 83.7421 57.451Z" fill="#6DB347"/>
<path d="M50.7738 52.4214C51.4258 53.402 51.3756 54.4077 50.8491 55.4385C50.5983 55.5894 50.3476 55.7402 50.0467 55.6648C49.6706 55.5642 49.2444 55.1871 49.0939 55.9917C49.0438 56.2179 48.5925 56.0671 48.3167 55.9917C46.9376 55.6648 46.3359 54.5334 45.6589 53.4523H45.6839C45.3329 52.5723 45.4332 51.642 45.4583 50.7369C45.4834 49.7815 45.8093 49.6558 46.7621 49.8821C48.3919 50.2592 49.7208 51.114 50.7738 52.4214Z" fill="#6DBB45"/>
<path d="M54.837 61.4729C54.2352 61.0455 54.1851 60.6181 54.8119 60.1655C55.1629 59.9141 55.539 59.6627 55.8901 59.4364C56.3665 59.2604 56.8679 59.2101 57.3192 58.9838C58.598 58.3553 59.7764 58.8581 60.9047 59.3861C61.4814 59.6627 61.5316 60.1906 61.0803 60.7186C61.4564 61.0203 62.0581 61.1209 62.0331 61.7495C62.0331 62.0009 61.8575 62.202 61.682 62.378C60.4785 63.6352 58.6983 63.8363 57.1187 62.9815C56.3163 62.5289 55.6895 61.85 54.837 61.4729Z" fill="#6BBB45"/>
<path d="M71.26 55.4898C70.3072 55.5652 69.4046 55.364 68.5772 54.9366C67.6495 52.4475 70.1317 49.4556 72.8146 49.7824C73.2659 49.8327 73.316 50.1344 73.4163 50.4361C74.0181 52.2715 73.0402 54.5092 71.26 55.4898Z" fill="#6CB646"/>
<path d="M61.7301 13.0996C63.5354 12.7727 64.8142 13.5773 65.7419 15.0607C65.8171 15.2116 65.6917 15.0356 65.792 15.1864C67.0206 17.1475 66.8201 17.6001 64.4631 17.9521C63.034 18.1532 61.6549 18.0275 60.5517 16.8961C60.2006 16.519 59.8245 16.167 60.2508 15.6138C60.3511 15.4881 60.4765 15.3121 60.3762 15.1613C59.2729 13.6779 60.7272 13.703 61.4543 13.3007C61.5546 13.2504 61.68 13.2253 61.7301 13.0996Z" fill="#6CB946"/>
<path d="M80.011 49.3793C78.5567 49.9324 75.9491 49.2284 74.9462 48.0468C74.6202 47.6445 74.7706 47.3428 74.9963 47.0662C75.3975 46.5634 75.8488 46.1611 76.4255 45.8594C77.7293 45.1051 79.1083 44.904 80.5877 45.3565C80.8384 45.7337 82.0921 45.6834 81.0891 46.5885C80.9889 46.6639 81.2145 46.6639 81.2897 46.6891C81.8915 46.9153 82.1422 47.2925 81.8664 47.921L81.8915 47.8959C81.2897 48.4742 80.7883 49.1279 80.011 49.3793Z" fill="#6DBB45"/>
<path d="M94.1501 46.8895C92.7711 44.7273 93.8994 41.6851 96.3817 40.7296C96.7828 40.5788 96.9082 40.7548 97.0587 41.0062C98.1368 42.6908 98.2622 45.7078 96.4318 46.8895C95.6545 47.0404 94.9023 47.3924 94.1501 46.8895Z" fill="#6EB846"/>
<path d="M69.3271 6.1348C70.305 6.08452 69.8286 6.73822 69.6781 7.01479C68.8006 8.44791 67.7475 9.65475 66.0676 10.1827C65.5159 10.409 64.9142 10.233 64.3375 10.2833C63.9865 10.3084 63.6354 10.2582 63.6104 9.8056C63.5853 9.40332 63.7859 9.12675 64.2372 9.12675C64.2623 9.12675 64.2623 9.20218 64.2873 9.22732C64.2623 9.17704 64.2623 9.1519 64.2372 9.10161C63.9363 9.00104 63.7608 9.32789 63.485 9.35304C62.7579 9.45361 62.3567 9.00104 62.5823 8.29705C62.7829 7.69363 63.2593 7.26621 63.6856 6.81365C64.2623 6.51194 64.9392 6.41137 65.5159 6.08452L65.4909 6.10966C66.7445 5.95881 68.0233 5.93366 69.3271 6.1348Z" fill="#6DBA45"/>
<path d="M99.8404 18.0531C98.7622 20.5673 95.2018 20.9696 93.5218 18.8073C93.2711 18.4805 93.3965 18.3296 93.5469 18.0531C94.6752 15.9914 97.4082 15.3628 99.3389 16.7708C99.2888 17.2736 100.016 17.4748 99.8404 18.0531Z" fill="#6EB746"/>
<path d="M74.7199 58.1795C74.2686 57.0733 74.5193 56.0676 75.2966 55.2379C76.2243 54.2322 77.2022 53.3019 78.7317 53.3773C79.5591 54.7099 79.2332 56.1179 78.9072 57.4504C78.6815 58.3304 77.9544 59.0344 77.0267 59.0595C76.1993 59.1098 75.1211 59.3612 74.7199 58.1795Z" fill="#6DBB45"/>
<path d="M107.39 35.8031C106.01 34.9483 105.208 32.3335 105.885 30.8501C105.985 30.6238 106.111 30.5484 106.336 30.5232C107.515 30.3975 109.496 31.8558 109.897 33.1632C110.223 34.1186 109.972 34.9734 109.37 35.7528L109.345 35.778C108.693 36.2557 108.016 35.8786 107.39 35.8031Z" fill="#6EB846"/>
<path d="M101.346 31.653C101.446 31.4518 101.596 31.3261 101.822 31.301C102.223 31.0747 102.7 31.0496 103.101 30.8736C104.254 30.3959 104.505 30.5467 104.58 31.7536C104.68 33.3124 104.68 34.8712 103.251 35.9523C102.825 36.2792 102.424 36.5557 101.947 36.078C101.822 35.9523 101.697 35.9272 101.496 35.9523C100.292 36.2037 100.017 35.9775 99.9415 34.7706C99.9164 34.3684 100.042 33.9409 99.8412 33.5387C99.791 33.3375 99.8913 33.1867 100.042 33.0861C100.644 32.709 100.969 32.1558 101.346 31.653Z" fill="#6CBC45"/>
<path d="M77.3249 6.98962C77.1745 7.46733 77.2748 7.94503 77.4001 8.3976C75.2438 9.57929 72.235 8.64902 71.2571 6.48677C71.0816 6.08449 71.2321 5.93364 71.5831 5.7325C73.3633 4.80223 76.0712 5.38051 77.3249 6.98962Z" fill="#6FB647"/>
<path d="M91.0696 9.05082C89.7407 9.20168 88.6625 9.65424 87.5593 10.0817C86.08 10.6348 83.7481 9.65424 82.7954 8.29655C82.4193 7.76856 82.6449 7.56742 83.0962 7.39143C84.8263 6.6623 87.5844 6.38573 88.7879 8.54798C89.3145 9.50339 90.2422 8.59826 91.0696 9.05082Z" fill="#6FB248"/>
<path d="M96.3315 24.5891C96.9082 23.5582 97.7857 22.9548 98.889 22.5777C99.4907 22.3765 99.8919 22.4268 99.8668 23.1811C100.067 24.1113 100.143 25.0416 99.7916 25.9719C99.2651 27.3799 98.2872 27.933 96.9082 27.6061C96.0807 27.405 96.0306 26.6759 96.0306 26.0222C95.9804 25.5445 96.2061 25.0919 96.3315 24.5891Z" fill="#6DB946"/>
<path d="M77.3006 35.2993C77.3256 34.5701 77.1 34.1427 76.2726 34.3439C74.8685 31.5782 75.8714 28.536 78.7548 26.7509C81.6633 24.9657 82.0645 25.1669 82.6161 28.4605C83.0925 31.3771 82.0394 33.7404 79.858 34.8467C79.0306 35.2741 78.2032 35.3747 77.3006 35.2993Z" fill="#618B4C"/>
<path d="M33.6216 51.3924C33.1954 51.6689 32.744 51.2415 32.2927 51.3924C30.4623 49.8084 30.1865 47.2439 31.5405 44.6793C32.2927 43.2714 33.421 42.2657 34.775 41.4863C35.126 41.2851 35.5272 41.0085 35.8281 41.5617C36.9564 43.6234 37.9844 45.7353 37.3826 48.1993C36.8811 50.2107 35.5773 51.4175 33.5714 51.8449C33.6467 51.7192 33.6467 51.5684 33.6216 51.3924C33.8974 51.1158 34.1983 50.8895 34.5242 50.7135C36.0537 49.909 36.7056 48.5261 36.7558 46.917C36.8059 45.5342 36.2794 44.2268 35.6776 42.9697C35.5021 42.5925 35.2263 42.3411 34.775 42.5674C32.9697 43.4725 30.7632 46.4896 31.6909 48.9284C31.7912 49.1547 31.8414 49.4061 32.1673 49.557C32.5936 49.2553 32.5936 48.7021 32.8443 48.2998C32.9446 48.1238 33.0449 47.8976 33.2706 47.8976C33.4962 47.8976 33.6216 48.149 33.6467 48.325C33.6968 49.3558 34.0478 50.3867 33.6216 51.3924Z" fill="#668D51"/>
<path d="M83.3203 17.0978C84.273 19.2852 83.8217 21.0703 82.0165 22.5537C80.838 23.5091 79.459 23.9365 78.0298 24.2634C77.5785 24.364 77.2776 24.2382 77.1021 23.7354C76.1994 21.2714 77.5534 17.6509 79.9103 16.4944C80.6374 16.1424 81.4398 16.1675 82.2421 16.1927C82.6182 16.5195 83.0946 16.8212 82.6684 17.4246C82.543 17.6509 82.3675 17.8269 82.1669 17.9778C81.7156 18.3046 81.3144 19.0086 80.7126 18.7321C80.0357 18.4303 80.9132 17.7766 80.6123 17.2487C79.9103 17.1732 79.484 17.6509 79.0829 18.1286C78.0799 19.2349 77.6537 20.5674 77.6286 22.0257C77.6035 23.2325 78.0047 23.484 79.2082 23.1571C81.4899 22.5034 82.8689 20.7434 82.9442 18.3298C82.9442 18.0029 82.9442 17.6509 83.0695 17.3492C83.1447 17.2487 83.22 17.1481 83.3203 17.0978Z" fill="#628C4E"/>
<path d="M41.4704 55.9669C40.8436 55.7155 40.5427 56.52 39.9911 56.4446C37.0574 54.9863 36.7315 51.3658 39.6651 48.5499C40.1666 49.1282 39.6902 49.5556 39.4144 49.983C38.7875 50.9635 38.4114 51.9944 38.5368 53.1761C38.612 53.7292 38.7625 54.2572 39.1135 54.6846C39.5397 55.2126 39.966 55.4138 40.2669 54.5589C40.3922 54.1818 40.3922 53.6538 40.8937 53.5784C41.5205 53.4778 41.32 54.3075 41.7462 54.4835C43.2005 52.2207 42.2477 49.5053 39.6651 48.575C40.4675 47.3933 40.6931 47.3682 41.5707 48.3236C43.4011 50.335 43.7772 53.1509 42.4733 55.0618C42.2226 55.4389 41.9217 55.7657 41.4704 55.9669Z" fill="#689252"/>
<path d="M30.3885 33.2896C31.943 30.8005 34.3751 30.1217 37.1081 29.9708C37.5595 29.9457 37.8353 30.1468 37.8604 30.5994C37.9606 33.2645 37.8102 35.8542 35.679 37.8404C35.5787 37.941 35.4784 37.9158 35.3781 37.8153C35.3279 37.2621 35.679 36.885 35.9297 36.4576C36.6568 35.1502 36.9828 33.7422 37.0831 32.2839C37.1583 31.052 36.9577 30.9011 35.7542 31.0017C34.2247 31.1274 33.0212 31.8565 31.8929 32.8371C31.5168 33.1639 31.2159 33.5662 30.6643 33.6668C30.4637 33.5913 30.2882 33.5411 30.3885 33.2896Z" fill="#628B51"/>
<path d="M63.2596 21.723C63.0591 22.251 63.2095 22.6532 63.6608 23.0304C65.4661 24.5138 68.1239 24.6646 70.0796 23.3572C70.5059 23.0807 71.0324 22.7538 70.882 22.2258C70.7566 21.7481 70.1548 22.0498 69.7787 21.9493C69.6784 21.9241 69.5531 21.8738 69.3776 21.7984C69.7787 21.1698 70.6312 21.3458 71.0073 20.7676C71.584 19.8373 70.1548 19.8876 70.2802 19.1836C71.0073 19.3344 71.4837 19.8122 71.8097 20.4407C72.1607 20.8681 70.8067 21.3207 71.8097 21.7481C71.0575 23.7344 68.9012 25.0166 66.7449 24.6898C65.4661 24.4886 64.2877 24.0109 63.1844 23.2818C62.2567 22.7035 62.3821 22.2007 63.2596 21.723Z" fill="#668B4E"/>
<path d="M54.8359 61.4744C55.889 61.4995 56.4156 62.4047 57.2179 62.8572C58.4214 63.5109 59.5497 63.6115 60.7031 62.8572C61.1294 62.5555 61.8816 62.3544 61.7562 61.751C61.6559 61.3487 61.0792 60.9715 60.5025 60.9464C60.5025 60.4687 61.33 60.6195 61.1544 60.0664C61.004 59.5887 60.5527 59.6138 60.2017 59.4127C59.0734 58.8344 57.9952 58.8596 56.892 59.3624C56.6162 59.4881 56.2401 59.4379 55.9141 59.463C57.8448 58.0802 60.9789 58.0047 62.5836 60.9464C62.5836 61.1978 62.8594 61.3738 62.7591 61.6755C62.709 61.7007 62.6839 61.7007 62.6589 61.7258C59.65 64.4663 57.6442 64.416 54.8359 61.4744Z" fill="#6E9057"/>
<path d="M63.2586 34.1947C63.2836 33.9433 63.2084 33.6416 63.3338 33.4656C64.4872 31.6554 63.1081 29.292 61.7541 28.1857C61.5285 28.0097 61.2778 27.8589 61.0521 27.6829C59.322 26.3252 58.7955 26.4509 58.3692 28.6131C58.0433 30.3982 58.0182 32.2085 59.4725 33.6165C59.6981 33.8427 59.7984 34.0942 59.7733 34.3959C57.2911 32.9879 57.2409 28.8646 58.6701 26.476C58.8707 26.1492 59.0964 26.1492 59.4223 26.2246C61.7291 26.7023 64.1111 29.6691 64.0609 32.0074C64.0108 32.8119 63.8102 33.5662 63.2586 34.1947Z" fill="#668D4F"/>
<path d="M51.176 11.3887C53.5078 11.3887 55.4635 13.1235 55.639 15.688C55.8898 19.1577 55.7644 19.4091 52.6302 18.2023C52.2792 18.0766 51.9031 18.0263 51.6523 17.6994C51.6774 17.6491 51.7276 17.5988 51.7526 17.5486C52.2541 17.2469 52.7054 17.4983 53.2069 17.624C54.6361 18.0011 54.937 17.7497 54.8367 16.2663C54.7364 14.8835 54.3101 13.6515 53.1317 12.7966C52.8559 12.5955 52.4798 12.2938 52.229 12.5955C51.201 13.9281 50.6745 12.9224 50.0476 12.1932C49.9724 11.9921 49.9975 11.8161 50.0978 11.6401C50.4237 11.2881 50.9001 11.7155 51.176 11.3887Z" fill="#658F4E"/>
<path d="M99.868 33.5146C100.344 34.294 99.8178 35.4003 100.746 36.054C101.097 35.8026 101.473 35.5008 101.899 35.1991C102.175 35.8026 102.275 36.5317 103.253 35.6517C104.682 34.3694 104.381 32.8106 104.331 31.2518C104.306 30.5981 103.779 30.7238 103.378 30.8998C102.877 31.1009 102.4 31.3523 101.824 31.2769C102.576 30.7489 103.554 30.0198 104.256 30.3718C105.133 30.7992 104.883 32.0563 104.883 33.0117C104.833 35.1991 103.529 36.6323 101.423 36.8334C101.021 36.934 100.62 37.0848 100.395 36.5568C99.7677 35.6266 99.7176 34.5957 99.868 33.5146Z" fill="#67954F"/>
<path d="M61.7328 13.0996C61.6576 13.2002 61.6074 13.3259 61.5071 13.3762C60.0779 14.3064 60.0779 14.3064 61.3065 15.463C61.131 15.9156 60.2535 15.3876 60.3036 16.0664C60.3287 16.5944 60.8051 16.871 61.2564 17.1475C62.9113 18.1784 64.541 17.8264 66.1708 17.1224C66.5469 16.9464 66.4215 16.6698 66.3212 16.3933C66.1708 15.9156 65.6693 15.6138 65.7446 15.0356C67.3994 16.7453 67.249 17.4241 65.0676 18.0527C63.0115 18.6309 60.2284 17.9772 59.7018 15.7898C59.6015 15.2116 59.3257 14.6333 59.6768 14.055C60.2535 13.527 60.9054 13.1248 61.7328 13.0996Z" fill="#6B9549"/>
<path d="M43.7003 29.7685C43.1236 29.8439 43.2239 30.1959 43.3493 30.5982C43.4997 31.0507 43.7755 31.5033 43.6 32.1821C43.0986 31.629 42.8228 31.0005 42.2711 30.573C41.6443 30.0953 41.2933 30.2462 41.0175 30.8747C40.2402 32.5593 40.6163 34.3192 42.0706 35.9032C42.5469 36.4061 43.2239 36.7329 43.4496 37.4872C40.9673 36.3306 38.7358 32.9364 41.2933 29.7433C41.9452 29.8439 42.572 29.8439 43.0233 29.2656C43.2741 29.2908 43.575 29.2153 43.7755 29.4416C43.8508 29.5673 43.8257 29.6679 43.7003 29.7685Z" fill="#638E4A"/>
<path d="M52.9551 66.5023C52.5289 66.4017 52.6041 67.1057 52.1528 67.0303C51.4507 67.0051 50.7487 67.0051 50.172 66.5274C50.1971 66.4771 50.2472 66.4268 50.2723 66.3766C50.8239 66.1251 51.4006 66.0246 51.4257 65.1446C51.4507 64.0132 51.6764 63.9629 52.7295 64.7926C53.0053 63.6109 52.7545 62.6806 51.9773 61.8006C51.3003 61.0212 50.3224 60.5435 49.8711 59.563C49.8962 59.5127 49.9463 59.4624 49.9714 59.4121C52.8298 60.267 54.9109 63.636 52.9551 66.5023Z" fill="#668E52"/>
<path d="M43.7031 29.768C43.7282 29.6423 43.7282 29.5417 43.7533 29.416C45.8845 30.3211 47.063 32.2822 46.8624 34.7211C46.7872 35.5508 46.6116 36.3805 46.386 37.1599C45.8594 38.8193 45.5586 38.8947 44.1043 37.8639C45.7591 37.9393 46.035 37.5873 46.2355 35.8525C46.5113 33.3131 46.0851 31.1508 43.7031 29.768Z" fill="#658B4F"/>
<path d="M83.7462 39.8757C82.4423 38.1911 82.6931 35.0986 84.1975 33.5398C84.4984 33.2381 84.7742 33.1878 85.075 33.4141C86.2033 34.3443 87.5322 35.1238 87.8833 36.7329C87.8331 36.7832 87.783 36.8083 87.7579 36.8586C86.8051 36.6323 86.5544 35.6266 85.9025 35.0735C84.8494 34.1432 84.5986 34.1935 84.0972 35.5009C83.6459 36.6323 83.4703 37.7386 83.9969 38.8951C84.0972 39.1214 84.0972 39.398 83.9969 39.6242C83.9467 39.75 83.8464 39.8254 83.7462 39.8757Z" fill="#689253"/>
<path d="M50.6475 45.3829C50.0708 45.4834 50.2714 45.936 50.2463 46.288C49.1681 46.992 48.0148 47.3691 46.7109 46.992C46.7109 46.8663 46.7862 46.7657 46.8865 46.6903C47.2626 46.4891 47.6888 46.5394 48.09 46.4389C49.0929 46.1874 49.1431 46.0366 48.5914 45.1063C48.3407 44.704 48.2153 44.3269 48.8171 44.1258C49.795 43.7989 49.1932 43.3463 48.9174 42.9189C48.5413 42.3658 47.7139 42.2904 47.5634 41.5109C47.5885 41.3852 47.6387 41.2847 47.7389 41.2344C49.6947 41.9384 50.497 43.4218 50.6475 45.3829Z" fill="#638A50"/>
<path d="M68.3725 29.2651C67.3194 29.1645 66.9433 29.7428 66.7428 30.6982C66.3667 32.4079 66.4168 33.9667 67.52 35.425C67.9964 36.0535 68.4979 36.4055 69.2752 36.3552C69.4757 36.6067 69.4757 36.8329 69.2752 37.0592C67.2693 36.5312 66.0407 34.8718 66.0156 32.6342C66.0156 31.6787 66.2413 30.7485 66.5672 29.8433C66.9433 28.7622 67.4448 28.4102 68.3725 29.2651Z" fill="#638D4C"/>
<path d="M74.7188 58.1792C75.2202 58.8329 76.1229 58.3049 76.4238 58.5312C77.853 59.5117 78.3795 58.1289 78.6052 57.5255C78.9813 56.6203 79.2069 55.5392 78.9311 54.4832C78.8308 54.1312 78.7807 53.7541 78.7055 53.377C80.26 54.9861 79.4075 58.5563 77.2763 59.4111C76.85 59.5871 76.3987 59.6626 75.9724 59.7631C75.6966 59.738 75.4459 59.6877 75.2704 59.4614C74.9193 59.1094 74.7188 58.682 74.7188 58.1792Z" fill="#6B9553"/>
<path d="M105.882 39.2715C107.061 41.7606 106.334 43.8474 103.851 45.1297C103.5 45.18 103.174 45.0291 102.848 44.9034C102.397 44.5765 101.921 44.2497 101.82 43.6463C101.87 43.596 101.896 43.5708 101.946 43.5206C102.623 43.6714 103.3 43.9228 103.701 42.9926C103.826 42.716 104.152 42.7663 104.303 43.0177C105.005 44.1491 105.155 43.1183 105.356 42.716C105.631 42.188 105.506 41.5846 105.531 41.0063C105.556 40.5035 105.481 40.0006 105.657 39.5229C105.707 39.4223 105.782 39.3469 105.882 39.2715Z" fill="#6B9254"/>
<path d="M39.4393 15.7394C39.4643 15.7142 39.5145 15.6891 39.5395 15.6891C42.1221 14.7588 42.5734 14.6331 42.3979 17.9268C42.2475 20.5164 40.7932 22.1255 38.6118 22.5278C38.4112 22.6032 38.2608 22.5781 38.1354 22.377C38.1104 22.2512 38.1605 22.1507 38.2357 22.0501C39.9909 21.3964 41.1443 20.2147 41.5454 18.329C41.9717 16.4182 41.6959 16.0411 39.7401 16.0914C39.5646 16.0662 39.4142 15.9657 39.4393 15.7394Z" fill="#678C4D"/>
<path d="M30.663 38.9941C29.9609 39.8238 30.0362 40.9301 29.6851 41.8855C29.5598 42.2626 29.5096 42.6901 29.0081 42.5644C28.4565 42.4386 28.7073 42.0364 28.7825 41.6592C29.0834 40.201 29.8356 38.8433 29.635 37.2844C29.8105 37.1336 30.0111 37.1336 30.2117 37.2342C30.8134 37.7119 31.2146 38.2399 30.663 38.9941Z" fill="#687476"/>
<path d="M58.2179 50.3355C58.243 49.9081 57.7165 49.8326 57.6914 49.4304C57.7165 49.3801 57.7416 49.3298 57.7666 49.2795C58.0424 49.0029 58.3935 48.8772 58.6943 48.6509C59.0454 48.3995 59.4215 47.9721 59.8979 48.3241C60.3241 48.6509 59.8728 49.1035 59.8979 49.5812C61.302 49.4304 62.0542 48.4749 62.7562 47.4441C63.007 47.067 63.0822 46.5893 63.5084 46.3127C63.6338 46.2624 63.7341 46.3127 63.8093 46.4133C63.2577 49.1789 61.0262 51.0395 58.2179 50.3355Z" fill="#648E4E"/>
<path d="M96.333 24.5896C96.358 24.7908 96.4834 24.9919 96.4333 25.193C96.1073 26.8776 96.1073 26.8776 97.7622 26.953C99.1161 27.0033 99.7179 26.5256 99.8182 25.193C99.8683 24.5393 99.8433 23.8605 99.8433 23.1816C100.796 25.721 99.6928 27.833 97.2105 28.2856C97.01 28.2101 96.7843 28.1096 96.5837 28.0341C95.6058 26.7016 95.5306 25.7965 96.333 24.5896Z" fill="#699951"/>
<path d="M87.8793 36.7578C88.7067 38.5429 88.2554 40.1269 86.6006 41.4092C86.2245 41.6354 85.8484 41.4846 85.4723 41.3589C84.695 41.1326 84.018 40.7303 83.7422 39.9006C83.7673 39.8755 83.8174 39.8503 83.8425 39.8C84.2938 39.5235 85.0711 40.5292 85.3469 39.3726C85.397 39.1715 85.7731 39.3978 85.9737 39.5486C86.8513 40.1772 87.2274 40.0263 87.4531 38.8949C87.6035 38.2161 87.3026 37.4618 87.779 36.8332C87.779 36.8081 87.8292 36.783 87.8793 36.7578Z" fill="#678F56"/>
<path d="M105.886 39.2727C105.861 39.3732 105.861 39.499 105.835 39.5995C105.785 39.5995 105.76 39.6247 105.71 39.5995C105.058 39.5241 104.782 38.3173 103.905 38.971C103.002 39.6498 102.35 40.4544 102.225 41.6361C102.15 42.2898 102.4 42.9938 101.874 43.5469L101.824 43.6223C100.921 42.2395 101.322 40.9321 102.125 39.675C102.425 39.2224 102.777 38.8201 103.153 38.443C104.707 36.9847 105.184 37.1356 105.886 39.2727Z" fill="#6C984F"/>
<path d="M58.2199 39.3477C58.9972 39.222 58.6462 38.5934 58.7214 38.166C58.8969 40.0768 60.301 39.4986 61.4293 39.5488C61.7803 39.574 62.4072 39.2471 62.4072 39.8757C62.4322 40.4791 61.8054 40.278 61.4293 40.3031C60.3762 40.3785 59.2981 40.2277 58.245 40.5797C58.0193 40.5797 57.8438 40.5043 57.6934 40.3534L57.6683 40.3031C57.3674 39.7248 57.9692 39.6243 58.2199 39.3477Z" fill="#68716E"/>
<path d="M30.6672 38.9969C30.7424 38.3684 30.4415 37.8655 30.1406 37.3375C30.1406 37.2873 30.1657 37.2118 30.1657 37.1615C30.1908 37.0861 30.2158 37.0107 30.266 36.9353C30.6922 36.4324 31.1686 35.6027 31.7704 35.8793C32.4725 36.2061 31.8707 36.9855 31.7203 37.5387C31.5197 38.2427 31.8707 38.4438 32.4725 38.4689C32.999 38.4941 33.4253 38.2678 33.8766 38.0415C34.3279 37.8152 34.7792 37.3878 35.3559 37.7901C35.4562 37.7901 35.5565 37.8152 35.6568 37.8152C34.2527 39.2986 32.4975 39.3489 30.6672 38.9969Z" fill="#668C5A"/>
<path d="M50.7722 52.422C49.9698 52.2712 49.6188 51.4917 49.0421 51.0392C48.2398 50.4106 47.2619 50.3352 46.4094 49.9581C45.8828 49.7318 45.7073 50.1843 45.7073 50.662C45.7073 51.5923 45.6823 52.4974 45.6823 53.4277C44.905 52.3969 45.1557 51.2403 45.3312 50.1089C45.3814 49.7066 45.6321 49.6061 46.0333 49.5809C47.6129 49.4301 50.0952 50.9135 50.7722 52.422Z" fill="#67924D"/>
<path d="M90.8159 29.77C89.7628 28.2866 88.459 27.2306 86.5033 27.2809C84.8234 27.3061 84.5977 27.5826 84.9237 29.2169C84.9738 29.418 85.0239 29.6192 84.8484 29.7951C83.7703 27.5323 83.5446 27.1301 86.6286 27.0043C89.0106 26.9289 90.3144 27.834 91.0416 29.8203C90.9413 29.8957 90.8661 29.8957 90.8159 29.77Z" fill="#6B9251"/>
<path d="M48.893 27.2785C48.9682 27.1779 49.0434 27.1025 49.0936 27.002C49.7706 27.5551 50.4225 28.0831 51.0995 28.6362C49.6703 28.2088 48.2662 28.5356 46.837 28.8122C46.5361 28.8625 46.1098 29.1139 46.0346 28.6111C45.9594 28.1334 46.4859 28.2591 46.7617 28.1334C47.4638 27.8065 48.4667 28.2842 48.893 27.2785Z" fill="#6E7975"/>
<path d="M45.6602 53.4262C46.1366 53.3759 46.1366 53.7782 46.287 54.0547C46.964 55.2113 47.5657 55.5884 49.02 55.8147C48.8946 55.4124 48.7943 55.0353 48.6188 54.4319C49.4212 54.9599 49.9477 55.6387 50.8253 55.4124C50.7751 55.5633 50.725 55.7141 50.6748 55.865C50.4743 56.2924 49.9477 56.0661 49.6719 56.3427C47.5407 56.4181 46.0112 55.3118 45.6602 53.4262Z" fill="#68914F"/>
<path d="M55.8666 35.3005C54.3622 35.4765 52.8076 35.0994 51.3283 35.7531C50.4256 36.1554 50.2752 36.5325 50.6262 37.4376C50.902 38.1416 51.6793 38.5188 51.6793 39.3485C50.6012 38.6696 50.2251 37.5131 49.8239 36.4068C49.7236 36.1554 49.6734 35.9542 50.0245 35.8285C51.93 35.0994 53.8106 34.3954 55.8666 35.3005Z" fill="#6A8D56"/>
<path d="M63.7624 1.10742C63.8376 1.93712 64.9408 1.40913 65.1164 2.08798C64.991 2.41483 64.6901 2.28912 64.4895 2.38968C64.1886 2.5154 63.8376 2.59082 63.7875 2.9931C63.7122 3.47081 64.0883 3.62166 64.3641 3.84794C64.7403 4.14965 65.3671 4.07423 65.5426 4.67764C64.2639 4.47651 63.3111 3.8228 62.7344 2.66625C62.7344 2.21369 63.3111 2.03769 63.2108 1.53484C63.3863 1.40913 63.5618 1.25828 63.7624 1.10742Z" fill="#659355"/>
<path d="M50.1722 66.5016C48.392 65.7725 48.0661 64.2136 48.041 62.5542C48.0159 61.6743 48.2416 60.8446 48.4422 59.9897C48.6929 58.984 49.1442 58.7829 49.9716 59.3863L49.8964 59.4617C48.5424 60.8194 48.4171 63.5096 49.5955 65.0685C49.8964 65.4707 50.4982 65.7473 50.1973 66.4262L50.1722 66.5016Z" fill="#668E52"/>
<path d="M63.688 6.81445C63.6128 6.99045 63.5376 7.19159 63.4373 7.34244C63.0862 7.79501 62.6349 8.22243 62.8104 8.87613C62.9107 9.20298 63.0612 9.20298 64.7662 8.87613C64.2145 9.25327 63.6379 9.40412 63.8384 9.85668C64.039 10.3595 64.5656 10.083 64.9417 10.1333C65.3178 10.1835 65.6939 10.1584 66.0449 10.1835C64.7411 10.7367 63.4623 10.5858 62.2337 9.95725C62.2087 9.6304 62.2087 9.27841 62.1836 8.95156C62.3591 8.02129 62.8104 7.26702 63.688 6.81445Z" fill="#679155"/>
<path d="M69.25 37.06C69.25 36.8337 69.25 36.5822 69.25 36.356C69.3503 36.0543 69.3754 35.7525 69.7765 36.1548C70.0774 36.4314 70.3282 36.9091 70.8798 36.8337C70.7544 37.8394 71.7824 37.9902 72.1585 38.6188C72.3341 38.8954 72.9609 39.0713 72.5848 39.4736C72.2338 39.8759 71.9329 39.3731 71.6821 39.1468C70.9049 38.4176 70.278 37.5125 69.25 37.06Z" fill="#6B7672"/>
<path d="M48.9416 20.2646C48.5655 19.9629 48.741 19.6109 48.8162 19.2338C49.0168 18.1527 48.6658 17.8761 47.5375 17.9767C46.0331 18.0772 44.9298 19.0829 43.5508 19.4852C44.8797 17.851 46.7853 17.6247 48.6908 17.4738C48.9666 17.4487 49.1923 17.5744 49.1923 17.8761C49.2425 18.6807 49.4681 19.5104 48.9416 20.2646Z" fill="#688F52"/>
<path d="M57.669 49.4288C57.5938 49.4539 57.4935 49.4539 57.4183 49.4791C56.4404 46.5625 58.3711 44.174 61.7059 43.7969C61.756 43.8472 61.7811 43.8974 61.8312 43.9477C61.9064 44.4003 61.6056 44.5511 61.2796 44.6266C58.9728 45.1797 57.8195 46.6128 57.8947 49.0265C57.8947 49.1522 57.8195 49.2528 57.7442 49.3533C57.7442 49.3533 57.669 49.4288 57.669 49.4288Z" fill="#648E4E"/>
<path d="M82.566 17.1477C82.9672 16.67 81.864 16.67 82.2651 16.1923C83.0173 15.7649 83.7696 15.2872 84.5468 14.9352C84.9229 14.7592 85.4244 14.0803 85.7754 14.7089C86.0763 15.262 85.299 15.3123 84.948 15.5386C84.5719 15.79 84.1707 16.0414 83.7445 16.1923C83.243 16.3683 83.3433 16.7454 83.3684 17.0974C83.3684 17.1728 83.3433 17.2231 83.3433 17.2986C83.0173 17.4494 82.7666 17.4243 82.566 17.1477Z" fill="#6C7770"/>
<path d="M71.8101 46.6639C72.0859 45.281 70.9576 44.6776 70.2305 43.873C71.434 44.3005 72.6375 44.4262 73.8912 44.1245C74.1168 44.0742 74.5681 43.9736 74.5932 44.3759C74.6183 44.753 74.2171 44.753 73.9413 44.7782C73.7407 44.8033 73.5151 44.8536 73.3145 44.8285C72.3617 44.7279 71.9354 45.1302 72.0107 46.1107C72.0357 46.2616 71.8853 46.4627 71.8101 46.6639Z" fill="#737A76"/>
<path d="M70.2812 19.1852C68.1499 18.7578 66.1942 18.984 64.5644 20.6434C64.3137 20.8949 64.088 21.2468 63.6367 21.1966C64.7149 19.16 68.4258 17.5258 70.2812 19.1852Z" fill="#6D9355"/>
<path d="M57.7224 40.3531C57.9481 40.3028 58.1486 40.4034 58.274 40.5794C55.8419 42.0125 52.8832 41.4342 51.6797 39.3223C53.159 40.1017 54.513 41.1577 56.3684 40.8308C56.8699 40.7554 57.3463 40.7051 57.7224 40.3531Z" fill="#5E8B54"/>
<path d="M70.8826 1.10946C69.7543 1.41117 68.8767 0.556323 67.7735 0.531181C66.3693 0.506039 65.0906 0.958602 63.7617 1.10946C66.1186 -0.499658 68.5006 -0.223091 70.8826 1.10946Z" fill="#6C9654"/>
<path d="M90.8172 29.7676C90.8924 29.7676 90.9677 29.7927 91.0429 29.7927C91.2435 31.1253 92.0207 32.131 92.7729 33.1618C92.8983 33.3378 93.124 33.6144 92.798 33.7904C92.5724 33.9161 92.4219 33.6898 92.2965 33.5389C91.9957 33.1367 91.6697 32.7595 91.4441 32.307C91.1683 31.779 90.7922 31.9801 90.4161 32.0807C90.2405 31.251 90.8172 30.5721 90.8172 29.7676Z" fill="#69786D"/>
<path d="M38.1367 22.2766C38.2871 22.3772 38.4376 22.4526 38.588 22.5532C37.1839 22.6286 36.0054 23.3075 34.852 23.9863C34.5762 24.1372 34.2503 24.4892 34.0246 24.0366C33.824 23.6092 34.3004 23.5338 34.5512 23.3829C35.0025 23.1063 35.4789 22.8298 35.9553 22.6286C36.3565 22.4526 36.3815 22.1761 36.3565 21.8492C37.0334 21.6984 37.6101 21.8995 38.1367 22.2766Z" fill="#697571"/>
<path d="M50.1966 11.7668C50.1966 11.9176 50.1966 12.0685 50.1966 12.2194C50.322 12.4708 50.2718 12.6971 50.1966 12.9485C49.7703 14.3565 50.0963 15.5382 51.1745 16.5438C51.4753 16.8204 51.9517 17.097 51.7762 17.6501C51.7512 17.6753 51.701 17.7255 51.6759 17.7507C49.2187 16.3176 48.7173 14.7587 49.7453 11.7416C49.8957 11.5154 50.0462 11.5405 50.1966 11.7668Z" fill="#6B9454"/>
<path d="M43.1237 43.3952C42.6723 43.018 42.7476 42.4146 42.547 41.9369C42.3464 41.4592 42.547 41.2581 42.9732 41.1324C44.5779 40.6798 46.1826 40.4284 47.7372 41.2832C47.7121 41.3335 47.662 41.3586 47.6369 41.4089C46.8095 41.9621 45.8567 41.7358 44.954 41.7106C43.8759 41.6604 43.2741 41.9621 43.3744 43.1438C43.3242 43.2443 43.249 43.3198 43.1237 43.3952Z" fill="#6E8E4F"/>
<path d="M107.891 27.0281C107.891 26.0727 107.891 25.0921 107.916 24.1367C108.568 25.5698 108.668 27.2041 109.671 28.4864C109.771 28.6121 109.871 28.7881 109.671 28.9138C109.445 29.0646 109.295 28.9389 109.144 28.7629C108.693 28.2098 108.718 27.3047 107.891 27.0281Z" fill="#717B71"/>
<path d="M50.197 11.7674C50.0465 11.7674 49.8961 11.7422 49.7206 11.7422C49.0436 11.3651 48.3415 10.9879 47.6645 10.5857C47.464 10.46 47.138 10.3845 47.2884 10.0577C47.464 9.68054 47.7648 9.83139 48.0156 9.95711C49.0687 10.46 49.9713 11.2394 51.1498 11.4154C50.9492 11.7925 50.5229 11.6165 50.197 11.7674Z" fill="#727A75"/>
<path d="M94.1521 46.891C94.9043 46.891 95.6565 46.6396 96.4087 46.891C95.1551 47.4945 94.3778 48.6259 93.3247 49.531C93.2495 48.8773 93.7008 48.5504 94.0518 48.1733C94.453 47.771 94.5282 47.3687 94.1521 46.891Z" fill="#73836F"/>
<path d="M38.137 22.2753C37.5102 22.3005 36.9084 22.225 36.3819 21.8227C36.1311 21.6468 36.1061 21.3702 36.1061 21.0685C36.0559 20.8925 36.0058 20.7165 36.0559 20.5405C36.9836 20.7919 37.8612 20.9176 38.6134 20.0879C38.7388 19.9371 39.0146 19.8868 39.1901 20.0628C39.3405 20.2136 39.3155 20.4399 39.2402 20.6411C38.9644 21.2193 38.6886 21.7473 38.2122 22.1999L38.137 22.2753Z" fill="#5D9149"/>
<path d="M46.9863 46.8411C46.886 46.8914 46.8108 46.9668 46.7105 47.0171C44.7548 46.5646 43.802 45.1063 43.125 43.3966C43.1501 43.3715 43.2002 43.3463 43.2253 43.3212C43.5011 43.1452 43.7017 43.2709 43.8772 43.4972C44.7046 44.6286 45.5321 45.76 46.8359 46.4137C46.9863 46.464 47.0114 46.6651 46.9863 46.8411Z" fill="#699351"/>
<path d="M75.398 13.3995C74.9718 12.6201 75.7741 12.0921 75.7992 11.4132C76.9275 11.5138 77.3788 10.1561 78.5572 10.2315C77.5292 11.3378 76.0499 11.9915 75.398 13.3995Z" fill="#717A77"/>
<path d="M49.6953 56.3703C49.8207 55.7669 50.3221 55.9429 50.6983 55.8926C51.1997 56.496 51.977 56.6217 52.6038 57.024C52.8044 57.1497 53.1053 57.3006 52.9298 57.6023C52.7794 57.8537 52.5035 57.728 52.2528 57.6023C51.4254 57.1748 50.623 56.5966 49.6953 56.3703Z" fill="#6D757B"/>
<path d="M30.1366 37.337C29.9862 37.337 29.8106 37.3118 29.6602 37.3118C29.3593 35.8787 29.5348 34.521 30.3873 33.2891C30.4625 33.3645 30.5628 33.4651 30.6381 33.5405C30.8386 34.8227 30.5879 36.0547 30.1867 37.2364L30.1366 37.337Z" fill="#638D4F"/>
<path d="M83.7433 57.4505C83.9188 57.35 84.1695 57.35 84.2197 57.0985C84.3952 56.2186 84.7462 56.6208 85.0722 56.998C84.32 57.6265 84.0692 58.582 83.668 59.4117C83.5677 59.6128 83.5427 59.9899 83.2167 59.8894C82.7905 59.7636 83.0412 59.4117 83.1415 59.1602C83.3421 58.582 83.7683 58.1042 83.7433 57.4505Z" fill="#737B79"/>
<path d="M59.6739 14.0809C59.6739 14.6591 59.6739 15.2374 59.6989 15.8157C59.2727 14.7848 58.4202 14.0809 57.668 13.3266C57.4423 13.1254 56.991 12.8992 57.3671 12.5472C57.6931 12.2455 57.8435 12.7232 58.0441 12.874C58.6459 13.226 58.8465 14.106 59.6739 14.0809Z" fill="#6C7471"/>
<path d="M81.8398 47.9217C81.7897 46.6646 80.7115 47.0166 79.9844 46.7652C80.185 46.1617 80.8369 46.5892 81.1628 46.1617C80.9623 45.9103 80.7617 45.6337 80.536 45.3572C81.1628 45.3069 81.4888 45.7846 81.8398 46.1617C81.8398 46.564 82.5419 46.6897 82.2912 47.1926C82.1407 47.4189 82.1909 47.8211 81.8398 47.9217Z" fill="#689259"/>
<path d="M85.4766 41.3594C85.8527 41.3845 86.2288 41.3845 86.6049 41.4097C87.0562 42.0634 87.5075 42.7171 87.9588 43.3456C88.1093 43.5719 88.2597 43.7982 87.9588 43.9742C87.7582 44.0999 87.6078 43.8988 87.4574 43.7479C86.7302 42.9936 86.3291 41.9879 85.4766 41.3594Z" fill="#727675"/>
<path d="M102.853 44.9039C103.204 44.8788 103.58 44.7279 103.855 45.1302C103.354 45.8342 102.853 46.5382 102.351 47.2422C102.226 47.4182 102.1 47.5942 101.85 47.4685C101.549 47.2925 101.699 47.0913 101.799 46.8399C102.1 46.1862 103.053 45.8593 102.853 44.9039Z" fill="#73777A"/>
<path d="M99.8441 18.0518C99.4931 17.6998 98.4901 17.5992 99.3426 16.7695C100.07 17.6244 101.374 17.4232 102.276 18.2781C101.323 18.6301 100.646 17.6998 99.8441 18.0518Z" fill="#768180"/>
<path d="M82.3172 47.191C82.1417 46.8641 81.6403 46.663 81.8659 46.1602C82.6181 46.7384 83.5208 46.8893 84.3733 47.191C84.599 47.2664 84.8998 47.3921 84.7995 47.6938C84.6993 48.0458 84.4234 47.8698 84.1727 47.7944C83.5709 47.5681 82.9441 47.3921 82.3172 47.191Z" fill="#757B7E"/>
<path d="M83.7961 5.75618C83.746 5.27847 84.6235 4.64991 83.5704 4.29792C83.5203 4.27278 83.7209 3.59393 83.7961 3.2168C84.2224 3.41794 84.5734 3.71964 84.8492 4.12192C84.8743 4.39849 84.8993 4.64991 84.9244 4.92648C84.6486 5.32876 84.2725 5.58018 83.7961 5.75618Z" fill="#688D53"/>
<path d="M62.7354 61.6491C62.61 61.4228 61.9581 61.3222 62.5599 60.9199C63.287 61.2971 64.0141 61.6742 64.7162 62.0765C64.9168 62.2022 65.1675 62.353 64.9669 62.6296C64.8165 62.8307 64.5908 62.7302 64.4153 62.6296C63.8637 62.3028 63.287 61.9759 62.7354 61.6491Z" fill="#6C7377"/>
<path d="M45.7109 24.2869C46.6888 23.4321 47.6917 22.5521 48.6696 21.6973C48.0428 22.9795 47.2655 24.0858 45.7109 24.2869Z" fill="#698D62"/>
<path d="M80.5606 45.3318C79.1565 45.3067 77.7524 45.3821 76.3984 45.8347C77.8527 44.7033 79.1565 44.5524 80.5606 45.3318Z" fill="#6F8D60"/>
<path d="M100.392 36.5566C100.743 36.6572 101.069 36.7326 101.42 36.8332C100.693 37.3109 99.9657 37.7635 99.2386 38.2412C99.038 38.3669 98.8123 38.6183 98.6368 38.2915C98.5114 38.0652 98.712 37.9143 98.8875 37.7886C99.3639 37.3612 100.041 37.1852 100.392 36.5566Z" fill="#72787F"/>
<path d="M75.2443 59.4608C75.5452 59.4357 75.7708 59.5362 75.9714 59.7625C75.2192 60.3156 74.467 60.8436 73.7148 61.3968C73.765 60.3408 74.8181 60.1899 75.2443 59.4608Z" fill="#747B7B"/>
<path d="M36.18 20.4423C36.155 20.6435 36.1299 20.8446 36.1048 21.0709C35.5783 19.5372 35.9293 18.2549 37.1328 17.1738C37.183 17.2241 37.2331 17.2744 37.2582 17.2995C37.3585 18.5064 36.5561 19.4115 36.18 20.4423Z" fill="#6E9554"/>
<path d="M61.707 43.7978C61.7321 43.7726 61.7572 43.7223 61.8073 43.7223C64.089 43.2698 64.4401 43.6972 63.8132 46.4126C63.7631 46.3874 63.738 46.3623 63.6879 46.312C63.5876 46.2366 63.4873 46.1109 63.4873 46.0103C63.5374 44.7783 62.9356 44.1246 61.7822 43.8732C61.7822 43.8983 61.707 43.7978 61.707 43.7978Z" fill="#648E4E"/>
<path d="M39.4418 15.7402C39.5421 15.8157 39.6173 15.8911 39.7176 15.9665C39.0657 16.7459 38.489 17.6511 37.2354 17.2488L37.1602 17.1734C37.7118 16.3688 38.5643 16.0671 39.4418 15.7402Z" fill="#6E9554"/>
<path d="M90.693 17.1472C90.0662 17.1975 89.4393 17.2478 88.8125 17.2729C89.7653 15.9907 89.8907 15.9907 90.693 17.1472Z" fill="#86A06B"/>
<path d="M109.348 35.7537C109.273 34.8486 110.201 34.1446 109.875 33.1641C110.426 34.044 110.05 34.924 109.85 35.804C109.674 35.7789 109.524 35.7789 109.348 35.7537Z" fill="#719463"/>
<path d="M69.3284 6.13546C68.0497 6.13546 66.7709 6.11032 65.4922 6.11032C66.7709 5.65775 68.0497 5.6829 69.3284 6.13546Z" fill="#6A8E57"/>
<path d="M80.0117 49.3799C80.6386 48.9022 81.0899 48.1982 81.8671 47.8965C81.5913 48.8519 80.8893 49.229 80.0117 49.3799Z" fill="#689259"/>
<path d="M101.347 31.6543C101.222 32.3834 100.971 33.012 100.094 33.0623C100.344 32.4337 100.746 31.956 101.347 31.6543Z" fill="#67954F"/>
<path d="M107.387 35.8025C108.039 35.8025 108.691 35.7773 109.342 35.7773C109.368 35.9282 109.368 36.0791 109.393 36.2551C108.691 36.1796 107.963 36.3305 107.387 35.8025Z" fill="#719463"/>
<path d="M124.641 90.5875C124.967 90.1349 125.293 89.6572 125.894 89.5566C125.694 90.1852 125.418 90.6629 124.641 90.5875Z" fill="#CEE3A9"/>
<path d="M65.4905 6.08358C65.0141 6.66185 64.3371 6.73728 63.6602 6.81271C64.1867 6.335 64.7634 6.03329 65.4905 6.08358Z" fill="#6A8E57"/>
<path fill-rule="evenodd" clip-rule="evenodd" d="M49.6947 89.029C48.9049 89.029 48.115 89.0228 47.3252 89.0165C46.5354 89.0102 45.7456 89.0039 44.9558 89.0039C45.1765 87.5197 45.6057 86.0894 46.0343 84.6606C46.4335 83.3303 46.8323 82.0014 47.062 80.6315C47.0787 80.5225 47.0926 80.4108 47.1065 80.299C47.1344 80.0756 47.1623 79.8521 47.2124 79.6509C47.7891 77.363 47.1372 75.9047 44.8053 74.899C42.624 73.9687 40.8187 72.3345 39.4647 70.2979C38.0104 68.0854 37.4839 65.6717 38.211 63.1324C38.537 62.0009 38.1609 61.5735 37.3084 61.0707L36.9525 60.8583C34.9626 59.6715 32.958 58.4758 31.0651 57.1233C26.1758 53.6034 24.4708 48.5749 24.7716 42.767C25.0224 37.9397 26.5017 33.4392 28.3572 29.0141C28.7721 28.0342 29.0728 27.0041 29.3735 25.9735L29.3736 25.9735C29.6361 25.0739 29.8988 24.1739 30.2377 23.3068C33.096 15.9652 38.3615 10.8361 45.2817 7.36649C45.8354 7.08892 46.3211 6.72964 46.8088 6.36883C46.9838 6.2394 47.159 6.10978 47.3378 5.98366C51.5752 2.99171 56.3391 1.73459 61.5043 1.8603C61.611 1.8603 61.7186 1.86461 61.8262 1.86892C62.3003 1.88789 62.7755 1.90691 63.1842 1.55859C63.5854 2.18715 63.1591 2.43858 62.7078 2.69C57.8937 2.61458 53.4055 3.64541 49.1681 6.58708C49.7314 6.70003 50.2646 6.80097 50.7783 6.89821C51.7511 7.08234 52.6535 7.25316 53.556 7.46706C54.9736 7.80412 56.3742 8.1668 57.7776 8.53022L57.7776 8.53024C58.782 8.79031 59.7877 9.05076 60.8022 9.30246C60.8657 9.31838 60.9301 9.33673 60.9947 9.35514C61.4398 9.4821 61.8966 9.61236 62.1813 8.97561C62.5824 9.27731 62.5323 9.62931 62.2314 9.9813C60.6966 9.83331 59.1878 9.51112 57.6795 9.18903C56.6253 8.9639 55.5713 8.73883 54.5088 8.57333C51.0737 8.02019 47.5634 7.56763 44.3791 9.40303C37.509 13.4258 32.9957 19.3594 30.5385 27.2793C32.8122 25.8182 35.2596 25.526 37.6784 25.2372C39.0475 25.0737 40.4073 24.9113 41.7213 24.5388C42.3983 24.3376 42.8747 24.1365 42.6741 23.3319C43.655 22.8219 44.3201 23.3148 44.9839 23.8068C45.2364 23.9939 45.4887 24.1808 45.7581 24.3125C43.7523 24.5136 41.8467 25.0919 39.9662 25.7205L39.8794 25.7493C39.5283 25.8661 39.1525 25.9911 38.7125 26.2233C39.6416 26.5608 40.3465 27.1957 41.0486 27.828C41.6539 28.3731 42.2571 28.9163 43.0001 29.2655C42.649 30.2712 42.0473 30.3467 41.27 29.7432C41.6686 29.2769 41.3826 29.0263 41.0858 28.7662C41.0466 28.7319 41.0072 28.6973 40.9691 28.6621C37.1579 25.293 31.8173 26.2736 29.2347 30.7992C27.6551 33.59 26.953 36.6071 26.7274 39.7499C26.3763 44.351 26.6271 48.8766 29.3852 52.8491C30.4633 54.4079 31.8173 55.6902 33.6727 56.6959C33.0459 54.8605 32.5193 53.176 32.3188 51.416C32.6126 51.1214 32.9416 51.179 33.2615 51.2352L33.2617 51.2352C33.3239 51.2461 33.3858 51.257 33.4471 51.2651C33.5474 51.2903 33.6477 51.3657 33.7229 51.4411C33.7981 51.6171 33.7981 51.768 33.6226 51.8937C33.2406 52.2129 33.3256 52.6041 33.4063 52.9758L33.4063 52.9759C33.421 53.0434 33.4355 53.1103 33.4471 53.176C33.9987 56.1176 35.829 58.0536 38.3364 59.4616C38.8128 59.7381 39.0635 59.6376 39.2641 59.1096C39.3384 58.8986 39.4233 58.6907 39.5084 58.4825C39.768 57.8469 40.029 57.2082 39.9912 56.4696L40.0092 56.4455C40.3794 55.9502 40.755 55.4476 41.4706 55.9919C40.8494 56.7706 40.6225 57.6939 40.3969 58.6126C40.2582 59.1771 40.12 59.7398 39.8909 60.2661C39.7712 60.5783 40.0631 60.7528 40.308 60.8993L40.3423 60.9198C45.5325 64.0626 48.0147 68.9403 49.1932 74.6979C49.2401 74.9252 49.2797 75.1551 49.3196 75.3866L49.3196 75.3867C49.4076 75.8975 49.4971 76.4165 49.6696 76.9355C51.4247 73.8682 52.0014 70.5242 52.1268 67.0294C52.206 66.9659 52.2551 66.8573 52.3043 66.7486C52.4109 66.5132 52.5174 66.2778 52.9291 66.5014C52.9291 66.7241 52.9284 66.9467 52.9276 67.1699C52.9221 68.7358 52.9165 70.3257 53.1799 72.1082L53.1804 72.1075L53.1811 72.1067C53.682 71.504 54.0578 71.0518 54.4586 70.5996C57.6931 66.9289 61.9807 65.194 66.6443 64.2638C67.547 64.0878 67.7225 63.7106 67.7225 62.9312C67.6974 61.7495 67.547 60.5678 66.9954 59.537C66.5291 58.6738 65.7037 58.711 64.9045 58.7469C64.5863 58.7613 64.2722 58.7754 63.9865 58.7324C59.4733 58.0285 55.612 56.3942 53.1799 52.2206C52.2522 50.6366 51.4749 48.9772 50.7478 47.2926C50.7183 47.2236 50.6907 47.1546 50.6634 47.0862C50.5512 46.8055 50.4429 46.5344 50.2212 46.3121C49.8451 45.6081 49.9454 45.407 50.6224 45.407C51.3027 46.7078 51.9929 47.9987 52.7184 49.3553L52.7185 49.3554C53.1427 50.1488 53.579 50.9647 54.0324 51.8183C54.4629 50.2679 55.5199 50.0043 56.5473 49.748L56.5473 49.748C56.8361 49.6759 57.1226 49.6045 57.3922 49.5052C57.4424 49.3795 57.5427 49.3292 57.668 49.3543C57.7049 49.3781 57.7431 49.4016 57.7817 49.4252L57.7818 49.4253C58.1103 49.627 58.4612 49.8425 58.1695 50.36C56.8155 50.2846 55.3362 50.36 54.8849 51.768C54.4586 53.0754 55.5869 54.1062 56.5899 54.8102C59.4482 56.8216 62.7078 57.5507 66.1429 57.425C67.6473 57.3496 68.7756 56.0673 68.5499 54.9611C69.5278 54.7097 70.4054 54.9862 71.2328 55.5142C70.8884 55.705 70.5015 55.7973 70.1146 55.8896C69.431 56.0527 68.7475 56.2157 68.2992 56.9222L68.2443 57.0096C67.7141 57.8527 67.2494 58.5916 68.0735 59.6124C68.7328 60.4228 68.7788 61.4503 68.8234 62.4494C68.8314 62.6281 68.8394 62.806 68.8508 62.9815C68.9009 63.6352 69.1015 63.8615 69.7534 63.7609C70.9412 63.5713 72.1382 63.4251 73.3353 63.2789C76.1056 62.9406 78.8768 62.6022 81.538 61.7244C85.1235 60.5427 87.8314 58.3302 89.06 54.6091C89.737 52.5474 89.4863 50.5612 88.1323 48.8012C85.1987 44.9795 81.3875 42.8424 76.5483 42.5156C71.0071 42.1636 66.1679 40.1773 62.4069 35.9534C62.0677 35.5669 61.6526 35.399 61.2433 35.2335C60.987 35.1299 60.733 35.0272 60.5013 34.8723C61.2535 33.2883 61.6547 33.2632 62.8582 34.822C62.7579 35.0231 62.6827 35.1991 62.8833 35.3751C67.0204 39.3225 71.9348 41.3087 77.9023 41.4345C76.2976 39.1716 76.097 36.8083 76.2224 34.3443C76.5233 34.0426 76.8743 33.9923 77.1752 34.2437C77.5513 34.5454 77.5011 34.9226 77.2504 35.2997C76.423 37.6631 77.9775 40.9819 80.2843 41.711C82.6914 42.4653 84.8978 43.6218 86.7783 45.3567C87.4553 45.9852 87.7311 45.8847 88.2326 45.1304C89.5364 43.119 91.2163 41.3842 93.1971 40.0516C95.0275 38.7945 95.6042 37.0597 95.7797 35.0231C95.8132 34.7206 95.8019 34.4068 95.7907 34.0967V34.0966V34.0963C95.7852 33.9428 95.7797 33.7902 95.7797 33.6403C95.7797 32.2072 95.4537 31.1261 93.9744 30.3215C91.7429 29.1398 90.1883 27.1787 89.411 24.7399C89.2104 24.1616 88.8845 23.7342 88.4833 23.3068C89.5615 22.6782 89.8874 22.8291 90.0128 24.0611C90.7901 26.6759 92.4951 28.5615 94.9523 29.6427C96.0284 30.1081 96.2344 29.2561 96.4221 28.4799C96.4575 28.3337 96.4922 28.1902 96.5319 28.0587C96.8578 27.8576 97.0083 28.0336 97.1587 28.3101C96.4316 30.1455 96.4567 32.0312 96.7325 33.9672C97.1086 36.6071 96.4065 38.9202 94.2251 40.655C92.3446 42.1384 90.7149 43.8481 89.4361 45.9098C89.0349 46.5635 88.9346 47.1669 89.3358 47.8709C89.7035 48.5246 90.0267 49.2006 90.3499 49.8767C90.5115 50.2147 90.673 50.5528 90.8402 50.888C91.0157 51.2651 91.1912 51.6171 91.7679 51.5417C95.529 51.0389 99.2649 50.536 102.75 48.8766C107.038 46.8149 109.119 43.295 109.37 38.6185C109.403 38.0998 109.392 37.57 109.381 37.0364V37.0359C109.375 36.7679 109.37 36.4989 109.37 36.23C109.294 36.1546 109.244 36.054 109.244 35.9534C109.269 35.8528 109.319 35.7523 109.42 35.6768C109.595 35.6266 109.746 35.6266 109.846 35.7774C109.912 36.2178 109.972 36.651 110.036 37.1148L110.036 37.116C110.092 37.5257 110.151 37.9592 110.222 38.4425C110.869 37.6781 110.984 36.8923 111.096 36.1244C111.105 36.0589 111.115 35.9935 111.125 35.9283C112.83 25.3182 107.665 17.876 99.0392 13.627C98.6381 13.4258 98.262 13.3504 97.8357 13.3755C92.6957 13.4761 87.6057 12.9984 82.566 11.867C81.6884 11.6658 81.1368 11.9676 80.5601 12.4704C79.1922 13.6433 78.0751 15.0362 76.9609 16.4255L76.9607 16.4257C76.6658 16.7935 76.3711 17.1609 76.072 17.524C75.3042 18.46 74.4189 19.269 73.5355 20.0763L73.5354 20.0764C72.9475 20.6137 72.3605 21.1502 71.8095 21.7228C71.5587 21.8485 71.308 21.8485 71.2077 21.572C71.0322 21.0188 71.3832 20.692 71.8095 20.4154C73.3609 19.7101 74.3151 18.4059 75.2632 17.1098C75.4643 16.8349 75.6652 16.5604 75.8714 16.292C76.0968 16.0015 76.3189 15.7077 76.5411 15.4137L76.5414 15.4134C77.7036 13.8763 78.8683 12.3359 80.51 11.2384C80.9362 10.9619 80.9111 10.7607 80.5852 10.5093C80.3516 10.3219 80.1261 10.1235 79.9009 9.92543L79.9008 9.92534C79.1592 9.27297 78.4201 8.62289 77.4009 8.37219C76.7991 7.91962 76.8994 7.44192 77.3256 6.96421C77.7015 7.26399 78.0693 7.57325 78.4364 7.88194C80.2247 9.38548 81.9966 10.8752 84.5969 11.1881C85.4817 11.2933 86.3664 11.407 87.2516 11.5208L87.2518 11.5208L87.2519 11.5208C89.7532 11.8424 92.2581 12.1644 94.7768 12.2944C94.8831 12.299 94.9894 12.3062 95.0964 12.3135C95.5695 12.3455 96.055 12.3784 96.6071 12.1938C95.554 10.4339 94.0998 9.12646 92.5452 7.99505C90.439 6.46136 88.0069 5.5311 85.5247 4.82711C85.3985 4.79098 85.2466 4.81974 85.0966 4.84813C85.0378 4.85925 84.9794 4.87031 84.9229 4.87739C84.5719 4.65111 84.622 4.37454 84.8477 4.07283C90.0379 4.97796 94.2502 7.59277 97.6602 11.5401C98.22 12.1983 98.9433 12.5136 99.6699 12.8304C99.887 12.9251 100.105 13.02 100.318 13.1241C104.455 15.2612 107.965 18.0772 110.197 22.2508C113.256 28.0587 113.055 34.0677 111.1 40.1522C108.918 46.8652 103.979 50.4103 97.4345 52.12C95.5791 52.5977 93.6986 52.9245 91.7679 53.1005C91.3166 53.1508 91.1411 53.3017 91.0408 53.7542C89.5865 59.9644 84.9981 62.6547 79.3566 64.1129C76.1973 64.9426 72.9628 65.2946 69.7033 65.3952C69.0514 65.4203 68.7505 65.6215 68.6001 66.25C67.5971 70.5494 64.7388 73.2647 60.9777 75.1756C55.1858 78.1424 51.3495 82.6932 49.6947 89.029ZM52.2775 78.9971C53.8572 74.5972 56.3645 70.9264 60.3763 68.4373C62.1565 67.3311 64.0872 66.5768 66.1181 66.0991C67.0208 65.898 67.0208 66.1745 66.8202 66.8785C66.3438 68.5882 65.3659 69.9459 64.0621 71.1024C62.8836 72.1584 61.5297 73.0133 60.1757 73.8178C59.4725 74.2568 58.7588 74.68 58.0443 75.1037L58.0439 75.1039C56.058 76.2814 54.0661 77.4625 52.2775 78.9971ZM39.4152 62.5037C43.427 65.0431 46.4609 69.8201 46.837 74.1446C41.2707 71.9069 38.0111 66.803 39.4152 62.5037Z" fill="#5E6E6F"/>
<path d="M58.2179 39.3471C58.0424 39.674 57.8669 39.9757 57.6914 40.3025C57.0896 39.9254 56.3876 39.7243 55.8359 39.0957C56.7135 39.1963 57.4657 39.2717 58.2179 39.3471Z" fill="#5E8B54"/>
<path d="M78.2513 31.3016C77.8251 31.9553 77.5242 32.3324 77.3236 32.785C77.1732 33.0616 77.0729 33.2878 76.6968 33.2627C76.2956 33.2376 76.3207 32.9107 76.2204 32.6341C75.7189 30.9747 76.9726 28.3851 78.8531 27.2537C79.1038 27.1028 79.3546 26.9519 79.6304 26.8262C81.4607 25.9714 81.7867 25.6697 82.2129 28.2594C82.4887 29.9942 82.3383 31.7542 81.1849 33.2627C80.5831 34.0673 79.7808 34.5701 78.8029 34.7712C77.8752 34.9724 77.3738 34.3438 77.8501 33.5393C78.2764 32.8856 78.2513 32.2821 78.2513 31.3016Z" fill="#6CBD45"/>
<path d="M33.6233 51.391C33.2472 50.3351 33.4227 49.2539 33.3474 47.8963C33.0466 48.7008 32.8209 49.2791 32.6454 49.8574C32.5702 50.1088 32.52 50.3602 32.1941 50.3351C31.8932 50.3099 31.818 50.1088 31.6926 49.8574C30.8652 48.2231 30.9655 46.614 31.843 45.0803C32.5451 43.8483 33.4728 42.8175 34.7516 42.1135C35.1026 41.9124 35.4035 41.7112 35.6793 42.1889C36.7574 44.0746 37.961 47.4186 36.256 49.6814C35.5539 50.6368 34.6763 51.0642 33.6233 51.391C33.6233 51.391 33.6483 51.4162 33.6233 51.391Z" fill="#6CBD45"/>
<path d="M82.5654 17.148C82.8161 17.1983 83.0669 17.2486 83.2925 17.2989C83.2173 18.2543 83.4931 19.2348 83.1922 20.1651C82.6908 21.7993 79.9327 23.7604 78.2778 23.7353C77.7764 23.7353 77.4755 23.5342 77.3752 23.0565C76.9991 21.2462 77.8014 18.1285 79.7822 17.0726C80.2336 16.8463 80.71 16.4189 81.1362 16.8714C81.5374 17.2737 81.061 17.7011 80.8353 18.0783C80.7601 18.204 80.7099 18.3548 80.8353 18.6565C81.4371 18.1788 81.9887 17.6508 82.5654 17.148Z" fill="#6CBD45"/>
<path d="M39.6637 48.5747C40.9174 48.273 41.5944 48.7256 42.2463 50.209C42.8731 51.617 42.9233 53.025 42.2714 54.4329C42.0959 54.8101 41.9203 55.3381 41.4439 55.2626C40.9675 55.1872 41.2183 54.6341 41.1431 54.3072C41.118 54.1564 41.0678 54.0055 41.0428 53.8295C40.5162 53.9552 40.7419 54.3826 40.6416 54.6592C40.4661 55.0866 40.3156 55.8158 39.9897 55.7655C39.5133 55.6649 38.9617 55.4386 38.6608 54.8352C37.6829 52.9747 38.1343 51.2901 39.2124 49.7062C39.4381 49.3039 39.8142 49.0524 39.6637 48.5747C39.6637 48.5747 39.6637 48.5496 39.6637 48.5747Z" fill="#6CBD45"/>
<path d="M30.1891 37.2365C30.0387 35.9543 30.139 34.7223 30.6404 33.5406C32.0696 31.9818 33.6994 30.8001 35.8808 30.5486C37.1595 30.3978 37.5105 30.6492 37.4353 31.9566C37.3099 34.0937 36.7834 36.1051 35.3542 37.7897C34.251 37.9154 33.4988 39.0217 32.2451 38.8205C31.1168 38.6445 30.8661 38.3428 31.4428 37.312C31.4929 37.2114 31.5932 37.1108 31.6183 36.9851C31.6935 36.6583 31.7437 36.3566 31.8189 35.9543C31.0667 36.2057 30.841 37.0103 30.1891 37.2365Z" fill="#6CBC45"/>
<path d="M51.7782 17.6507C51.6026 17.0473 50.9758 16.8713 50.5997 16.3936C49.4965 14.9604 49.321 13.7536 50.1985 12.1948C50.8003 12.1948 50.9507 12.949 51.5023 13.0245C51.8784 11.7925 52.3298 11.6668 53.3578 12.4713C55.0628 13.8039 55.3135 15.6393 55.1881 17.6255C55.1631 18.2289 54.7117 18.1535 54.2855 18.229C53.3829 18.3547 52.6808 17.6004 51.7782 17.6507Z" fill="#6CBC45"/>
<path d="M50.2229 66.4513C49.1698 65.2696 48.2923 64.0125 48.4678 62.3028C48.543 61.5989 48.6433 60.92 48.7436 60.216C48.8439 59.5372 49.3203 59.3612 49.9221 59.4617C50.925 60.3166 52.0533 61.0457 52.7804 62.2023C53.2568 62.9817 53.2318 63.7862 53.2067 64.6159C53.2067 64.9176 53.2819 65.3199 52.8306 65.4205C52.3542 65.4959 52.304 65.1439 52.2037 64.8171C52.1536 64.6662 52.0533 64.5405 51.8276 64.3394C51.7524 65.4456 52.1536 66.9542 50.2229 66.4513Z" fill="#6CBC45"/>
<path d="M87.7547 36.8594C87.7296 37.8903 88.0806 38.9211 87.4538 39.9017C86.7266 41.0331 86.6514 41.0331 85.8741 39.9519C85.7739 39.8262 85.6986 39.6754 85.498 39.3737C85.3727 39.8765 85.2975 40.2537 85.1972 40.6308C84.5703 40.6057 84.3447 39.9771 83.8432 39.8262C83.9686 39.1977 83.442 38.7451 83.3417 38.192C83.091 36.8091 83.6677 35.6023 84.1942 34.3955C84.445 33.8675 84.8461 33.7669 85.3978 34.1943C86.3505 34.9235 87.0025 35.9292 87.7547 36.8594Z" fill="#6CBC45"/>
<path d="M46.9902 46.8402C45.2601 46.1865 44.3825 44.6025 43.2291 43.3202C42.9533 41.334 42.9533 41.334 45.0344 41.334C45.912 41.334 46.7645 41.3843 47.6421 41.4094C48.0683 42.1637 49.0462 42.2894 49.4724 43.0185C49.6981 43.4208 49.999 43.8231 49.7984 44.2757C49.5727 44.8288 49.0462 44.2756 48.645 44.4768C48.645 44.5774 48.645 44.6779 48.6952 44.7785C48.8456 45.3065 50.024 45.3316 49.5727 46.0356C49.1966 46.639 48.3692 46.8402 47.5919 46.8402C47.3913 46.8402 47.1907 46.8402 46.9902 46.8402Z" fill="#6CBD45"/>
<path d="M101.876 43.5723C101.751 41.8878 101.801 40.2787 103.255 39.0215C104.434 37.9907 104.66 37.9656 105.487 39.2478C105.587 39.3735 105.713 39.4741 105.838 39.5998C105.863 40.3541 105.863 41.1084 105.888 41.8626C105.888 42.2901 105.813 42.6923 105.637 43.0695C105.412 43.5472 105.111 44.0752 104.635 44.1003C104.008 44.1506 104.509 43.2706 104.058 43.0443C103.255 44.5277 103.255 44.5277 101.876 43.5723Z" fill="#6CBC45"/>
<path d="M37.2093 17.2466C38.2373 17.1963 38.7889 16.2157 39.6915 15.9643C40.3184 15.7883 41.0204 15.3609 41.5721 15.8638C42.1738 16.442 42.1738 17.2214 41.9482 18.0511C41.2461 20.7414 40.2181 21.9231 38.1871 22.1494C38.0868 21.3197 38.8892 20.9174 39.1149 20.0374C38.1119 20.5654 37.3096 22.3253 36.1813 20.4397C35.9556 19.1826 36.9585 18.3529 37.2093 17.2466Z" fill="#6DBD45"/>
<path d="M61.7821 43.8994C61.8574 43.8994 61.9577 43.8994 62.0329 43.8743C63.7379 43.8491 63.7379 43.8491 63.7128 45.5839C63.7128 45.8354 63.7128 46.0868 63.6877 46.3131C62.9606 47.721 62.2836 49.129 60.6789 49.7827C60.1273 50.009 59.6509 50.0844 59.1494 49.7324C59.35 49.305 60.0521 49.0787 59.7011 48.3747C58.999 48.5759 58.6229 49.481 57.7704 49.3302C56.968 46.8913 58.7483 44.8548 60.9046 44.352C61.2305 44.3017 61.6568 44.4022 61.7821 43.8994Z" fill="#6CBC45"/>
</svg>
